<?xml version="1.0" encoding="utf-8"?>
<!-- Generator: Adobe Illustrator 18.1.1, SVG Export Plug-In . SVG Version: 6.00 Build 0)  -->
<svg version="1.1" id="Layer_1" xmlns="http://www.w3.org/2000/svg" xmlns:xlink="http://www.w3.org/1999/xlink" x="0px" y="0px"
	 width="82.7px" height="82.7px" viewBox="-264 355.3 82.7 82.7" enable-background="new -264 355.3 82.7 82.7"
	 xml:space="preserve">
<path fill="#FFFFFF" d="M-223.3,355c-22.8,0-41.3,18.5-41.3,41.3s18.5,41.3,41.3,41.3s41.3-18.5,41.3-41.3
	C-181.9,373.5-200.5,355-223.3,355z M-223.3,432.3c-19.9,0-36-16.1-36-36s16.1-36,36-36s36,16.1,36,36S-203.4,432.3-223.3,432.3z"/>
<path fill="#FFFFFF" d="M-229.1,419.6h9.3v-23.3h6.5l0.7-7.8h-7.2c0,0,0-2.9,0-4.4c0-1.8,0.4-2.6,2.1-2.6c1.4,0,5,0,5,0v-8.1
	c0,0-5.3,0-6.4,0c-6.9,0-10,3-10,8.9c0,5.1,0,6.2,0,6.2h-4.9v7.9h4.8L-229.1,419.6L-229.1,419.6z"/>
</svg>
