<?xml version="1.0" encoding="utf-8"?>
<!-- Generator: Adobe Illustrator 18.1.1, SVG Export Plug-In . SVG Version: 6.00 Build 0)  -->
<svg version="1.1" id="Layer_1" xmlns="http://www.w3.org/2000/svg" xmlns:xlink="http://www.w3.org/1999/xlink" x="0px" y="0px"
	 width="82.7px" height="82.7px" viewBox="-264 355.3 82.7 82.7" enable-background="new -264 355.3 82.7 82.7"
	 xml:space="preserve">
<path fill="#FFFFFF" d="M-222.9,355c-22.8,0-41.3,18.5-41.3,41.3s18.5,41.3,41.3,41.3s41.3-18.5,41.3-41.3S-200.1,355-222.9,355z
	 M-222.9,432.3c-19.9,0-36-16.1-36-36s16.1-36,36-36s36,16.1,36,36S-203,432.3-222.9,432.3z"/>
<path fill="#FFFFFF" d="M-234.7,416.6h24.5c4.4,0,8-3.6,8-8v-18.1h-11.9c1.2,1.7,1.9,3.8,1.9,6c0,5.7-4.6,10.4-10.4,10.4
	c-5.7,0-10.4-4.6-10.4-10.4c0-2.2,0.7-4.3,1.9-6h-11.6v18.2C-242.7,413.1-239.1,416.6-234.7,416.6z"/>
<path fill="#FFFFFF" d="M-222.9,355c-22.8,0-41.3,18.5-41.3,41.3s18.5,41.3,41.3,41.3s41.3-18.5,41.3-41.3S-200.1,355-222.9,355z
	 M-222.9,432.3c-19.9,0-36-16.1-36-36s16.1-36,36-36s36,16.1,36,36S-203,432.3-222.9,432.3z"/>
<path fill="#FFFFFF" d="M-222.5,386.1c2.9,0,5.5,1.2,7.4,3.1h12.9v-5.3l0,0c0-4.4-3.6-8-8-8h-21.9V386h-1.6v-10.1h-0.9
	c-0.1,0-0.1,0-0.2,0V386h-1.6v-9.9c-0.4,0.1-0.8,0.2-1.2,0.4v9.5h-1.6v-8.6c-2,1.4-3.4,3.8-3.4,6.5v5.3h12.8
	C-228,387.3-225.4,386.1-222.5,386.1z M-212.8,380.6c0-0.7,0.6-1.3,1.3-1.3h4.3c0.7,0,1.3,0.6,1.3,1.3v4.4c0,0.7-0.6,1.3-1.3,1.3
	h-4.3c-0.7,0-1.3-0.6-1.3-1.3V380.6z"/>
<path fill="#FFFFFF" d="M-217.2,390.5c-0.6-0.5-1.2-0.9-2-1.3c-1-0.5-2.1-0.7-3.3-0.7s-2.3,0.3-3.3,0.7c-0.7,0.3-1.4,0.8-2,1.3
	c-1.7,1.5-2.7,3.6-2.7,6c0,4.4,3.6,8,8,8s8-3.6,8-8C-214.5,394.1-215.6,391.9-217.2,390.5z M-222.5,402.4c-3.3,0-5.9-2.6-5.9-5.9
	c0-3.3,2.6-5.9,5.9-5.9s5.9,2.6,5.9,5.9C-216.6,399.8-219.2,402.4-222.5,402.4z"/>
<path fill="#FFFFFF" d="M-234.7,416.6h24.5c4.4,0,8-3.6,8-8v-18.1h-11.9c1.2,1.7,1.9,3.8,1.9,6c0,5.7-4.6,10.4-10.4,10.4
	c-5.7,0-10.4-4.6-10.4-10.4c0-2.2,0.7-4.3,1.9-6h-11.6v18.2C-242.7,413.1-239.1,416.6-234.7,416.6z"/>
</svg>
