<?xml version="1.0" encoding="utf-8"?>
<!-- Generator: Adobe Illustrator 18.1.1, SVG Export Plug-In . SVG Version: 6.00 Build 0)  -->
<svg version="1.1" id="Layer_1" xmlns="http://www.w3.org/2000/svg" xmlns:xlink="http://www.w3.org/1999/xlink" x="0px" y="0px"
	 width="453px" height="115.5px" viewBox="0 0 453 115.5" style="enable-background:new 0 0 453 115.5;" xml:space="preserve">
<style type="text/css">
	.st0{fill:none;}
</style>
<path d="M59.7,16.5c-23.2,0-42,18.8-42,42s18.8,42,42,42s42-18.8,42-42S82.9,16.5,59.7,16.5z M52.4,25.1c0-0.3-0.6-0.7-0.2-0.7h15
	c0.4,0,1.2,0.4,1.2,0.7v2.8c0,0.3-0.8,0.5-1.2,0.5h-3.8v13.6l-6,7.2v-1.1c0-0.1,0-0.1,0-0.2V28.4h-5.2c-0.4,0,0.2-0.1,0.2-0.5V25.1z
	 M71.4,79.9c0,1-0.6,2.8-1,3.6c0,0-4,7.8-9.4,9.8h-2.5c-5.4-2-8.7-9.8-8.7-9.8c-0.4-0.9-0.3-2.7-0.3-3.6V69.2c0-1,0-1.9,1-1.9h5.8
	c0.9,0,1.2-1,1.2-1.6v-9.8l6-7.2v16.6c0,0.7-1.2,2-0.2,2H69c1,0,2.4,0.9,2.4,1.9V79.9z"/>
<g>
	<rect x="121" y="50.5" class="st0" width="318" height="31.5"/>
	<path d="M126.5,54.1H122c-0.3,0-0.6-0.3-0.6-0.6v-2.5c0-0.3,0.2-0.6,0.6-0.6h13.1c0.3,0,0.6,0.3,0.6,0.6v2.5c0,0.3-0.2,0.6-0.6,0.6
		h-4.6v16.8c0,0.3-0.3,0.6-0.6,0.6h-2.8c-0.3,0-0.6-0.3-0.6-0.6V54.1z"/>
	<path d="M138.8,51.1c0-0.3,0.3-0.6,0.6-0.6h2.8c0.3,0,0.6,0.3,0.6,0.6V59h9.8v-7.9c0-0.3,0.2-0.6,0.6-0.6h2.8
		c0.3,0,0.6,0.3,0.6,0.6v19.9c0,0.3-0.3,0.6-0.6,0.6H153c-0.3,0-0.6-0.3-0.6-0.6v-8.3h-9.8v8.3c0,0.3-0.2,0.6-0.6,0.6h-2.8
		c-0.3,0-0.6-0.3-0.6-0.6V51.1z"/>
	<path d="M161.8,51.1c0-0.3,0.2-0.6,0.6-0.6h12.2c0.3,0,0.6,0.3,0.6,0.6v2.5c0,0.3-0.2,0.6-0.6,0.6h-8.9V59h7.4
		c0.3,0,0.6,0.3,0.6,0.6v2.5c0,0.3-0.3,0.6-0.6,0.6h-7.4v5.2h8.9c0.3,0,0.6,0.3,0.6,0.6v2.5c0,0.3-0.2,0.6-0.6,0.6h-12.2
		c-0.3,0-0.6-0.3-0.6-0.6V51.1z"/>
	<path d="M188.9,54.1h-4.6c-0.3,0-0.6-0.3-0.6-0.6v-2.5c0-0.3,0.2-0.6,0.6-0.6h13.1c0.3,0,0.6,0.3,0.6,0.6v2.5
		c0,0.3-0.2,0.6-0.6,0.6h-4.6v16.8c0,0.3-0.3,0.6-0.6,0.6h-2.8c-0.3,0-0.6-0.3-0.6-0.6V54.1z"/>
	<path d="M201.1,51.1c0-0.3,0.2-0.6,0.6-0.6h8.6c3.6,0,6.5,2.9,6.5,6.4c0,2.8-1.8,5-4.4,6.1l4.1,7.6c0.2,0.4,0,0.9-0.5,0.9h-3.1
		c-0.3,0-0.4-0.1-0.5-0.3l-4-7.9H205v7.6c0,0.3-0.3,0.6-0.6,0.6h-2.8c-0.3,0-0.6-0.3-0.6-0.6V51.1z M209.9,60.1c1.6,0,3-1.4,3-3.1
		c0-1.6-1.4-2.9-3-2.9h-4.9v6H209.9z"/>
	<path d="M221.1,51.1c0-0.3,0.2-0.6,0.6-0.6h12.2c0.3,0,0.6,0.3,0.6,0.6v2.5c0,0.3-0.2,0.6-0.6,0.6H225V59h7.4
		c0.3,0,0.6,0.3,0.6,0.6v2.5c0,0.3-0.3,0.6-0.6,0.6H225v5.2h8.9c0.3,0,0.6,0.3,0.6,0.6v2.5c0,0.3-0.2,0.6-0.6,0.6h-12.2
		c-0.3,0-0.6-0.3-0.6-0.6V51.1z"/>
	<path d="M238.7,50.8c0-0.3,0.3-0.5,0.6-0.5h0.8l12.5,13.3h0V51.1c0-0.3,0.2-0.6,0.6-0.6h2.8c0.3,0,0.6,0.3,0.6,0.6v20.2
		c0,0.3-0.3,0.5-0.6,0.5h-0.7L242.6,58h0v12.9c0,0.3-0.2,0.6-0.6,0.6h-2.7c-0.3,0-0.6-0.3-0.6-0.6V50.8z"/>
	<path d="M271.2,50.2c3,0,5.2,1,7.3,2.8c0.3,0.2,0.3,0.6,0,0.8l-1.8,1.9c-0.2,0.2-0.5,0.2-0.8,0c-1.3-1.1-2.9-1.8-4.6-1.8
		c-3.8,0-6.7,3.2-6.7,7c0,3.8,2.9,6.9,6.7,6.9c1.8,0,3.3-0.7,4.6-1.7c0.2-0.2,0.6-0.2,0.8,0l1.9,1.9c0.2,0.2,0.2,0.6,0,0.8
		c-2,2-4.6,2.9-7.3,2.9c-6,0-10.8-4.8-10.8-10.8C260.4,55,265.2,50.2,271.2,50.2z"/>
	<path d="M282.5,51.1c0-0.3,0.3-0.6,0.6-0.6h2.8c0.3,0,0.6,0.3,0.6,0.6V59h9.8v-7.9c0-0.3,0.2-0.6,0.6-0.6h2.8
		c0.3,0,0.6,0.3,0.6,0.6v19.9c0,0.3-0.3,0.6-0.6,0.6h-2.8c-0.3,0-0.6-0.3-0.6-0.6v-8.3h-9.8v8.3c0,0.3-0.2,0.6-0.6,0.6H283
		c-0.3,0-0.6-0.3-0.6-0.6V51.1z"/>
	<path d="M305.5,51.1c0-0.3,0.2-0.6,0.6-0.6h12.2c0.3,0,0.6,0.3,0.6,0.6v2.5c0,0.3-0.2,0.6-0.6,0.6h-8.9V59h7.4
		c0.3,0,0.6,0.3,0.6,0.6v2.5c0,0.3-0.3,0.6-0.6,0.6h-7.4v5.2h8.9c0.3,0,0.6,0.3,0.6,0.6v2.5c0,0.3-0.2,0.6-0.6,0.6h-12.2
		c-0.3,0-0.6-0.3-0.6-0.6V51.1z"/>
	<path d="M321.9,68.6l1.1-1.9c0.2-0.4,0.8-0.4,1-0.2c0.2,0.1,2.6,1.9,4.5,1.9c1.6,0,2.7-1,2.7-2.3c0-1.5-1.3-2.6-3.8-3.6
		c-2.8-1.1-5.6-2.9-5.6-6.5c0-2.7,2-5.8,6.7-5.8c3.1,0,5.4,1.6,6,2c0.3,0.2,0.4,0.7,0.2,1l-1.1,1.7c-0.2,0.4-0.7,0.6-1,0.4
		c-0.2-0.1-2.5-1.6-4.2-1.6c-1.7,0-2.6,1.1-2.6,2.1c0,1.4,1.1,2.4,3.5,3.4c2.9,1.2,6.3,2.9,6.3,6.8c0,3.1-2.7,5.9-6.9,5.9
		c-3.8,0-6-1.8-6.6-2.3C321.8,69.2,321.7,69.1,321.9,68.6z"/>
	<path d="M348.2,50.7c0-0.2,0.2-0.5,0.5-0.5h0.5c0.2,0,0.4,0.1,0.5,0.3l6.6,14.2c0.1,0,0.1,0,0.1,0l6.6-14.2
		c0.1-0.2,0.2-0.3,0.5-0.3h0.5c0.3,0,0.5,0.2,0.5,0.5l3.5,20.2c0.1,0.4-0.1,0.7-0.5,0.7h-2.7c-0.3,0-0.5-0.2-0.6-0.5l-1.8-11.4
		c0,0-0.1,0-0.1,0l-5.2,11.8c-0.1,0.2-0.2,0.3-0.5,0.3h-0.5c-0.3,0-0.4-0.1-0.5-0.3l-5.3-11.8c0,0-0.1,0-0.1,0l-1.7,11.4
		c0,0.2-0.3,0.5-0.5,0.5h-2.7c-0.4,0-0.6-0.3-0.6-0.7L348.2,50.7z"/>
	<path d="M372.2,51.1c0-0.3,0.2-0.6,0.6-0.6H385c0.3,0,0.6,0.3,0.6,0.6v2.5c0,0.3-0.2,0.6-0.6,0.6h-8.9V59h7.4
		c0.3,0,0.6,0.3,0.6,0.6v2.5c0,0.3-0.3,0.6-0.6,0.6h-7.4v5.2h8.9c0.3,0,0.6,0.3,0.6,0.6v2.5c0,0.3-0.2,0.6-0.6,0.6h-12.2
		c-0.3,0-0.6-0.3-0.6-0.6V51.1z"/>
	<path d="M389.9,51.1c0-0.3,0.2-0.6,0.5-0.6h7.1c5.8,0,10.5,4.7,10.5,10.5c0,5.8-4.7,10.5-10.5,10.5h-7.1c-0.3,0-0.5-0.3-0.5-0.6
		V51.1z M397.2,67.9c3.9,0,6.8-2.9,6.8-6.9c0-3.9-2.8-6.8-6.8-6.8h-3.4v13.7H397.2z"/>
	<path d="M412,51.1c0-0.3,0.3-0.6,0.6-0.6h2.8c0.3,0,0.6,0.3,0.6,0.6v19.9c0,0.3-0.3,0.6-0.6,0.6h-2.8c-0.3,0-0.6-0.3-0.6-0.6V51.1z
		"/>
	<path d="M418.7,70.7l9.3-20.2c0.1-0.2,0.2-0.3,0.5-0.3h0.3c0.3,0,0.4,0.2,0.5,0.3l9.2,20.2c0.2,0.4-0.1,0.8-0.5,0.8h-2.6
		c-0.5,0-0.7-0.2-0.9-0.6l-1.5-3.2h-9l-1.5,3.2c-0.1,0.3-0.4,0.6-0.9,0.6h-2.6C418.7,71.5,418.5,71.1,418.7,70.7z M431.6,64.3
		l-3-6.6h-0.1l-2.9,6.6H431.6z"/>
</g>
<g>
</g>
<g>
</g>
<g>
</g>
<g>
</g>
<g>
</g>
<g>
</g>
</svg>
