<?xml version="1.0" encoding="utf-8"?>
<!-- Generator: Adobe Illustrator 18.1.1, SVG Export Plug-In . SVG Version: 6.00 Build 0)  -->
<svg version="1.1" id="Layer_1" xmlns="http://www.w3.org/2000/svg" xmlns:xlink="http://www.w3.org/1999/xlink" x="0px" y="0px"
	 width="453px" height="115.5px" viewBox="-169 249.5 453 115.5" enable-background="new -169 249.5 453 115.5"
	 xml:space="preserve">
<path fill="#FFFFFF" d="M-109.3,266c-23.2,0-42,18.8-42,42s18.8,42,42,42s42-18.8,42-42S-86.1,266-109.3,266z M-116.6,274.6
	c0-0.3-0.6-0.7-0.2-0.7h15c0.4,0,1.2,0.4,1.2,0.7v2.8c0,0.3-0.8,0.5-1.2,0.5h-3.8v13.6l-6,7.2v-1.1c0-0.1,0-0.1,0-0.2v-19.5h-5.2
	c-0.4,0,0.2-0.1,0.2-0.5C-116.6,277.4-116.6,274.6-116.6,274.6z M-97.6,329.4c0,1-0.6,2.8-1,3.6c0,0-4,7.8-9.4,9.8h-2.5
	c-5.4-2-8.7-9.8-8.7-9.8c-0.4-0.9-0.3-2.7-0.3-3.6v-10.7c0-1,0-1.9,1-1.9h5.8c0.9,0,1.2-1,1.2-1.6v-9.8l6-7.2v16.6
	c0,0.7-1.2,2-0.2,2h5.7c1,0,2.4,0.9,2.4,1.9V329.4z"/>
<g>
	<rect x="-48" y="300" fill="none" width="318" height="31.5"/>
	<path fill="#FFFFFF" d="M-42.5,303.6H-47c-0.3,0-0.6-0.3-0.6-0.6v-2.5c0-0.3,0.2-0.6,0.6-0.6h13.1c0.3,0,0.6,0.3,0.6,0.6v2.5
		c0,0.3-0.2,0.6-0.6,0.6h-4.6v16.8c0,0.3-0.3,0.6-0.6,0.6h-2.8c-0.3,0-0.6-0.3-0.6-0.6C-42.5,320.4-42.5,303.6-42.5,303.6z"/>
	<path fill="#FFFFFF" d="M-30.2,300.6c0-0.3,0.3-0.6,0.6-0.6h2.8c0.3,0,0.6,0.3,0.6,0.6v7.9h9.8v-7.9c0-0.3,0.2-0.6,0.6-0.6h2.8
		c0.3,0,0.6,0.3,0.6,0.6v19.9c0,0.3-0.3,0.6-0.6,0.6h-3c-0.3,0-0.6-0.3-0.6-0.6v-8.3h-9.8v8.3c0,0.3-0.2,0.6-0.6,0.6h-2.8
		c-0.3,0-0.6-0.3-0.6-0.6v-19.9H-30.2z"/>
	<path fill="#FFFFFF" d="M-7.2,300.6c0-0.3,0.2-0.6,0.6-0.6H5.6c0.3,0,0.6,0.3,0.6,0.6v2.5c0,0.3-0.2,0.6-0.6,0.6h-8.9v4.8h7.4
		c0.3,0,0.6,0.3,0.6,0.6v2.5c0,0.3-0.3,0.6-0.6,0.6h-7.4v5.2h8.9c0.3,0,0.6,0.3,0.6,0.6v2.5c0,0.3-0.2,0.6-0.6,0.6H-6.6
		c-0.3,0-0.6-0.3-0.6-0.6V300.6z"/>
	<path fill="#FFFFFF" d="M19.9,303.6h-4.6c-0.3,0-0.6-0.3-0.6-0.6v-2.5c0-0.3,0.2-0.6,0.6-0.6h13.1c0.3,0,0.6,0.3,0.6,0.6v2.5
		c0,0.3-0.2,0.6-0.6,0.6h-4.6v16.8c0,0.3-0.3,0.6-0.6,0.6h-2.8c-0.3,0-0.6-0.3-0.6-0.6v-16.8H19.9z"/>
	<path fill="#FFFFFF" d="M32.1,300.6c0-0.3,0.2-0.6,0.6-0.6h8.6c3.6,0,6.5,2.9,6.5,6.4c0,2.8-1.8,5-4.4,6.1l4.1,7.6
		c0.2,0.4,0,0.9-0.5,0.9h-3.1c-0.3,0-0.4-0.1-0.5-0.3l-4-7.9H36v7.6c0,0.3-0.3,0.6-0.6,0.6h-2.8c-0.3,0-0.6-0.3-0.6-0.6v-19.8H32.1z
		 M40.9,309.6c1.6,0,3-1.4,3-3.1c0-1.6-1.4-2.9-3-2.9H36v6H40.9z"/>
	<path fill="#FFFFFF" d="M52.1,300.6c0-0.3,0.2-0.6,0.6-0.6h12.2c0.3,0,0.6,0.3,0.6,0.6v2.5c0,0.3-0.2,0.6-0.6,0.6H56v4.8h7.4
		c0.3,0,0.6,0.3,0.6,0.6v2.5c0,0.3-0.3,0.6-0.6,0.6H56v5.2h8.9c0.3,0,0.6,0.3,0.6,0.6v2.5c0,0.3-0.2,0.6-0.6,0.6H52.7
		c-0.3,0-0.6-0.3-0.6-0.6L52.1,300.6L52.1,300.6z"/>
	<path fill="#FFFFFF" d="M69.7,300.3c0-0.3,0.3-0.5,0.6-0.5h0.8l12.5,13.3l0,0v-12.5c0-0.3,0.2-0.6,0.6-0.6H87
		c0.3,0,0.6,0.3,0.6,0.6v20.2c0,0.3-0.3,0.5-0.6,0.5h-0.7l-12.7-13.8l0,0v12.9c0,0.3-0.2,0.6-0.6,0.6h-2.7c-0.3,0-0.6-0.3-0.6-0.6
		V300.3z"/>
	<path fill="#FFFFFF" d="M102.2,299.7c3,0,5.2,1,7.3,2.8c0.3,0.2,0.3,0.6,0,0.8l-1.8,1.9c-0.2,0.2-0.5,0.2-0.8,0
		c-1.3-1.1-2.9-1.8-4.6-1.8c-3.8,0-6.7,3.2-6.7,7c0,3.8,2.9,6.9,6.7,6.9c1.8,0,3.3-0.7,4.6-1.7c0.2-0.2,0.6-0.2,0.8,0l1.9,1.9
		c0.2,0.2,0.2,0.6,0,0.8c-2,2-4.6,2.9-7.3,2.9c-6,0-10.8-4.8-10.8-10.8C91.4,304.5,96.2,299.7,102.2,299.7z"/>
	<path fill="#FFFFFF" d="M113.5,300.6c0-0.3,0.3-0.6,0.6-0.6h2.8c0.3,0,0.6,0.3,0.6,0.6v7.9h9.8v-7.9c0-0.3,0.2-0.6,0.6-0.6h2.8
		c0.3,0,0.6,0.3,0.6,0.6v19.9c0,0.3-0.3,0.6-0.6,0.6h-2.8c-0.3,0-0.6-0.3-0.6-0.6v-8.3h-9.8v8.3c0,0.3-0.2,0.6-0.6,0.6H114
		c-0.3,0-0.6-0.3-0.6-0.6v-19.9H113.5z"/>
	<path fill="#FFFFFF" d="M136.5,300.6c0-0.3,0.2-0.6,0.6-0.6h12.2c0.3,0,0.6,0.3,0.6,0.6v2.5c0,0.3-0.2,0.6-0.6,0.6h-8.9v4.8h7.4
		c0.3,0,0.6,0.3,0.6,0.6v2.5c0,0.3-0.3,0.6-0.6,0.6h-7.4v5.2h8.9c0.3,0,0.6,0.3,0.6,0.6v2.5c0,0.3-0.2,0.6-0.6,0.6h-12.2
		c-0.3,0-0.6-0.3-0.6-0.6V300.6z"/>
	<path fill="#FFFFFF" d="M152.9,318.1l1.1-1.9c0.2-0.4,0.8-0.4,1-0.2c0.2,0.1,2.6,1.9,4.5,1.9c1.6,0,2.7-1,2.7-2.3
		c0-1.5-1.3-2.6-3.8-3.6c-2.8-1.1-5.6-2.9-5.6-6.5c0-2.7,2-5.8,6.7-5.8c3.1,0,5.4,1.6,6,2c0.3,0.2,0.4,0.7,0.2,1l-1.1,1.7
		c-0.2,0.4-0.7,0.6-1,0.4c-0.2-0.1-2.5-1.6-4.2-1.6s-2.6,1.1-2.6,2.1c0,1.4,1.1,2.4,3.5,3.4c2.9,1.2,6.3,2.9,6.3,6.8
		c0,3.1-2.7,5.9-6.9,5.9c-3.8,0-6-1.8-6.6-2.3C152.8,318.7,152.7,318.6,152.9,318.1z"/>
	<path fill="#FFFFFF" d="M179.2,300.2c0-0.2,0.2-0.5,0.5-0.5h0.5c0.2,0,0.4,0.1,0.5,0.3l6.6,14.2c0.1,0,0.1,0,0.1,0L194,300
		c0.1-0.2,0.2-0.3,0.5-0.3h0.5c0.3,0,0.5,0.2,0.5,0.5l3.5,20.2c0.1,0.4-0.1,0.7-0.5,0.7h-2.7c-0.3,0-0.5-0.2-0.6-0.5l-1.8-11.4h-0.1
		l-5.2,11.8c-0.1,0.2-0.2,0.3-0.5,0.3h-0.5c-0.3,0-0.4-0.1-0.5-0.3l-5.3-11.8h-0.1l-1.7,11.4c0,0.2-0.3,0.5-0.5,0.5h-2.7
		c-0.4,0-0.6-0.3-0.6-0.7L179.2,300.2z"/>
	<path fill="#FFFFFF" d="M203.2,300.6c0-0.3,0.2-0.6,0.6-0.6H216c0.3,0,0.6,0.3,0.6,0.6v2.5c0,0.3-0.2,0.6-0.6,0.6h-8.9v4.8h7.4
		c0.3,0,0.6,0.3,0.6,0.6v2.5c0,0.3-0.3,0.6-0.6,0.6h-7.4v5.2h8.9c0.3,0,0.6,0.3,0.6,0.6v2.5c0,0.3-0.2,0.6-0.6,0.6h-12.2
		c-0.3,0-0.6-0.3-0.6-0.6L203.2,300.6L203.2,300.6z"/>
	<path fill="#FFFFFF" d="M220.9,300.6c0-0.3,0.2-0.6,0.5-0.6h7.1c5.8,0,10.5,4.7,10.5,10.5s-4.7,10.5-10.5,10.5h-7.1
		c-0.3,0-0.5-0.3-0.5-0.6V300.6z M228.2,317.4c3.9,0,6.8-2.9,6.8-6.9c0-3.9-2.8-6.8-6.8-6.8h-3.4v13.7H228.2z"/>
	<path fill="#FFFFFF" d="M243,300.6c0-0.3,0.3-0.6,0.6-0.6h2.8c0.3,0,0.6,0.3,0.6,0.6v19.9c0,0.3-0.3,0.6-0.6,0.6h-2.8
		c-0.3,0-0.6-0.3-0.6-0.6V300.6z"/>
	<path fill="#FFFFFF" d="M249.7,320.2L259,300c0.1-0.2,0.2-0.3,0.5-0.3h0.3c0.3,0,0.4,0.2,0.5,0.3l9.2,20.2c0.2,0.4-0.1,0.8-0.5,0.8
		h-2.6c-0.5,0-0.7-0.2-0.9-0.6l-1.5-3.2h-9l-1.5,3.2c-0.1,0.3-0.4,0.6-0.9,0.6H250C249.7,321,249.5,320.6,249.7,320.2z M262.6,313.8
		l-3-6.6h-0.1l-2.9,6.6H262.6z"/>
</g>
</svg>
