<?xml version="1.0" encoding="utf-8"?>
<!-- Generator: Adobe Illustrator 18.1.1, SVG Export Plug-In . SVG Version: 6.00 Build 0)  -->
<svg version="1.1" id="Layer_1" xmlns="http://www.w3.org/2000/svg" xmlns:xlink="http://www.w3.org/1999/xlink" x="0px" y="0px"
	 width="20px" height="20px" viewBox="-295 387 20 20" enable-background="new -295 387 20 20" xml:space="preserve">
<path fill="#FFFFFF" d="M-285.4,388.4c-4.7,0-8.5,3.8-8.5,8.5c0,4.7,3.8,8.5,8.5,8.5c4.7,0,8.5-3.8,8.5-8.5
	C-276.9,392.2-280.7,388.4-285.4,388.4z M-287,390.1c0,0,0-0.1,0.1-0.1h3.1c0,0-0.2,0.1-0.2,0.1v0.6c0,0.1,0.2,0.3,0.2,0.3h-1.2v2.6
	l-1,1.4v-0.2l0,0V391h-0.9c-0.1,0-0.1-0.2-0.1-0.3V390.1z M-283,401.3c0,0.2-0.1,0.6-0.2,0.7c0,0-0.8,1-1.9,2h-0.5c-1.1-1-2-2-2-2
	c-0.1-0.2-0.4-0.5-0.4-0.7v-2.2c0-0.2,0.5-0.1,0.7-0.1h1.2c0.2,0,0.1-0.5,0.1-0.6v-2l1-1.5v3.4c0,0.1,0.1,0.7,0.4,0.7h1.2
	c0.2,0,0.5-0.1,0.5,0.1v2.2H-283z"/>
</svg>
