<?xml version="1.0" encoding="utf-8"?>
<!-- Generator: Adobe Illustrator 18.1.1, SVG Export Plug-In . SVG Version: 6.00 Build 0)  -->
<svg version="1.1" id="Layer_1" xmlns="http://www.w3.org/2000/svg" xmlns:xlink="http://www.w3.org/1999/xlink" x="0px" y="0px"
	 width="82.7px" height="82.7px" viewBox="-264 355.3 82.7 82.7" enable-background="new -264 355.3 82.7 82.7"
	 xml:space="preserve">
<path fill="#FFFFFF" d="M-222.7,355.3c-22.8,0-41.3,18.5-41.3,41.3c0,22.8,18.5,41.3,41.3,41.3s41.3-18.5,41.3-41.3
	C-181.3,373.8-199.8,355.3-222.7,355.3z M-222.7,432.6c-19.9,0-36-16.1-36-36c0-19.9,16.1-36,36-36s36,16.1,36,36
	C-186.7,416.5-202.8,432.6-222.7,432.6z"/>
<path fill="#FFFFFF" d="M-241.1,411.5c3.7,2.4,8.1,3.8,12.8,3.8c15.5,0,24.3-13.1,23.7-24.9c1.6-1.2,3-2.6,4.2-4.3
	c-1.5,0.7-3.1,1.1-4.8,1.3c1.7-1,3-2.7,3.7-4.6c-1.6,1-3.4,1.7-5.3,2c-1.5-1.6-3.7-2.6-6.1-2.6c-5.4,0-9.3,5-8.1,10.3
	c-6.9-0.3-13.1-3.7-17.2-8.7c-2.2,3.8-1.1,8.7,2.6,11.1c-1.4,0-2.7-0.4-3.8-1c-0.1,3.9,2.7,7.5,6.7,8.3c-1.2,0.3-2.5,0.4-3.8,0.1
	c1.1,3.3,4.1,5.7,7.8,5.8C-232.3,410.8-236.7,412-241.1,411.5z"/>
</svg>
