<?xml version="1.0" encoding="utf-8"?>
<!-- Generator: Adobe Illustrator 18.1.1, SVG Export Plug-In . SVG Version: 6.00 Build 0)  -->
<svg version="1.1" id="Layer_1" xmlns="http://www.w3.org/2000/svg" xmlns:xlink="http://www.w3.org/1999/xlink" x="0px" y="0px"
	 width="82.7px" height="82.7px" viewBox="-354 265.3 82.7 82.7" enable-background="new -354 265.3 82.7 82.7"
	 xml:space="preserve">
<path d="M-312.7,265.3c-22.8,0-41.3,18.5-41.3,41.3s18.5,41.3,41.3,41.3c22.8,0,41.3-18.5,41.3-41.3
	C-271.3,283.8-289.8,265.3-312.7,265.3z M-312.7,342.6c-19.9,0-36-16.1-36-36s16.1-36,36-36s36,16.1,36,36S-292.8,342.6-312.7,342.6
	z"/>
<path d="M-331.1,321.5c3.7,2.4,8.1,3.8,12.8,3.8c15.5,0,24.3-13.1,23.7-24.9c1.6-1.2,3-2.6,4.2-4.3c-1.5,0.7-3.1,1.1-4.8,1.3
	c1.7-1,3-2.7,3.7-4.6c-1.6,1-3.4,1.7-5.3,2c-1.5-1.6-3.7-2.6-6.1-2.6c-5.4,0-9.3,5-8.1,10.3c-6.9-0.3-13.1-3.7-17.2-8.7
	c-2.2,3.8-1.1,8.7,2.6,11.1c-1.4,0-2.7-0.4-3.8-1c-0.1,3.9,2.7,7.5,6.7,8.3c-1.2,0.3-2.5,0.4-3.8,0.1c1.1,3.3,4.1,5.7,7.8,5.8
	C-322.3,320.8-326.7,322-331.1,321.5z"/>
</svg>
